<mxfile host="app.diagrams.net" modified="2023-09-18T12:22:17.938Z" agent="Mozilla/5.0 (Windows NT 10.0; Win64; x64) AppleWebKit/537.36 (KHTML, like Gecko) Chrome/115.0.0.0 Safari/537.36" etag="8wBf0SHSY1Db9VDISnVf" version="21.7.5" type="github">
  <diagram name="Page-1" id="WFNwDV4Vefcgq_tsfiKY">
    <mxGraphModel dx="1247" dy="714" grid="1" gridSize="10" guides="1" tooltips="1" connect="1" arrows="1" fold="1" page="1" pageScale="1" pageWidth="850" pageHeight="1100" math="0" shadow="0">
      <root>
        <mxCell id="0" />
        <mxCell id="1" parent="0" />
        <mxCell id="ahcAF79gHkiVkAypd0kX-71" value="" style="endArrow=none;html=1;rounded=0;entryX=0.5;entryY=0;entryDx=0;entryDy=0;" edge="1" parent="1" target="ahcAF79gHkiVkAypd0kX-64">
          <mxGeometry width="50" height="50" relative="1" as="geometry">
            <mxPoint x="640" y="390" as="sourcePoint" />
            <mxPoint x="800" y="360" as="targetPoint" />
          </mxGeometry>
        </mxCell>
        <mxCell id="ahcAF79gHkiVkAypd0kX-70" value="" style="endArrow=none;html=1;rounded=0;entryX=0.5;entryY=0;entryDx=0;entryDy=0;" edge="1" parent="1" target="ahcAF79gHkiVkAypd0kX-63">
          <mxGeometry width="50" height="50" relative="1" as="geometry">
            <mxPoint x="760" y="390" as="sourcePoint" />
            <mxPoint x="800" y="360" as="targetPoint" />
          </mxGeometry>
        </mxCell>
        <mxCell id="ahcAF79gHkiVkAypd0kX-61" value="" style="ellipse;whiteSpace=wrap;html=1;dashed=1;dashPattern=8 8;" vertex="1" parent="1">
          <mxGeometry x="345" y="187.5" width="100" height="175" as="geometry" />
        </mxCell>
        <mxCell id="ahcAF79gHkiVkAypd0kX-29" value="" style="endArrow=none;html=1;rounded=0;exitX=0.5;exitY=0;exitDx=0;exitDy=0;" edge="1" parent="1" source="ahcAF79gHkiVkAypd0kX-20">
          <mxGeometry width="50" height="50" relative="1" as="geometry">
            <mxPoint x="1010" y="400" as="sourcePoint" />
            <mxPoint x="910" y="370" as="targetPoint" />
          </mxGeometry>
        </mxCell>
        <mxCell id="ahcAF79gHkiVkAypd0kX-28" value="" style="endArrow=none;html=1;rounded=0;exitX=0.5;exitY=0;exitDx=0;exitDy=0;" edge="1" parent="1">
          <mxGeometry width="50" height="50" relative="1" as="geometry">
            <mxPoint x="1039.92" y="320" as="sourcePoint" />
            <mxPoint x="1039.92" y="370" as="targetPoint" />
          </mxGeometry>
        </mxCell>
        <mxCell id="ahcAF79gHkiVkAypd0kX-16" value="" style="ellipse;whiteSpace=wrap;html=1;dashed=1;dashPattern=8 8;" vertex="1" parent="1">
          <mxGeometry x="1240" y="202.5" width="100" height="175" as="geometry" />
        </mxCell>
        <mxCell id="ahcAF79gHkiVkAypd0kX-3" value="AS Design Assurance" style="rounded=0;whiteSpace=wrap;html=1;" vertex="1" parent="1">
          <mxGeometry x="790" y="30" width="120" height="60" as="geometry" />
        </mxCell>
        <mxCell id="ahcAF79gHkiVkAypd0kX-4" value="Identify Hardware" style="rounded=1;whiteSpace=wrap;html=1;" vertex="1" parent="1">
          <mxGeometry x="985" y="140" width="120" height="60" as="geometry" />
        </mxCell>
        <mxCell id="ahcAF79gHkiVkAypd0kX-5" value="Identify Software" style="rounded=1;whiteSpace=wrap;html=1;" vertex="1" parent="1">
          <mxGeometry x="590" y="140" width="120" height="60" as="geometry" />
        </mxCell>
        <mxCell id="ahcAF79gHkiVkAypd0kX-6" value="Analysis of &lt;br&gt;Industry standard" style="shape=parallelogram;perimeter=parallelogramPerimeter;whiteSpace=wrap;html=1;fixedSize=1;" vertex="1" parent="1">
          <mxGeometry x="1105" y="260" width="120" height="60" as="geometry" />
        </mxCell>
        <mxCell id="ahcAF79gHkiVkAypd0kX-7" value="Cost analysis" style="text;html=1;strokeColor=none;fillColor=none;align=center;verticalAlign=middle;whiteSpace=wrap;rounded=0;" vertex="1" parent="1">
          <mxGeometry x="1260" y="230" width="60" height="30" as="geometry" />
        </mxCell>
        <mxCell id="ahcAF79gHkiVkAypd0kX-8" value="Usage requirement" style="text;html=1;strokeColor=none;fillColor=none;align=center;verticalAlign=middle;whiteSpace=wrap;rounded=0;" vertex="1" parent="1">
          <mxGeometry x="1260" y="275" width="60" height="30" as="geometry" />
        </mxCell>
        <mxCell id="ahcAF79gHkiVkAypd0kX-9" value="" style="endArrow=classic;html=1;rounded=0;exitX=0.5;exitY=1;exitDx=0;exitDy=0;entryX=0.625;entryY=-0.05;entryDx=0;entryDy=0;entryPerimeter=0;" edge="1" parent="1" source="ahcAF79gHkiVkAypd0kX-4" target="ahcAF79gHkiVkAypd0kX-6">
          <mxGeometry width="50" height="50" relative="1" as="geometry">
            <mxPoint x="940" y="470" as="sourcePoint" />
            <mxPoint x="990" y="420" as="targetPoint" />
            <Array as="points">
              <mxPoint x="1045" y="230" />
              <mxPoint x="1180" y="230" />
            </Array>
          </mxGeometry>
        </mxCell>
        <mxCell id="ahcAF79gHkiVkAypd0kX-11" value="Requirement extraction from Failure Management" style="shape=parallelogram;perimeter=parallelogramPerimeter;whiteSpace=wrap;html=1;fixedSize=1;" vertex="1" parent="1">
          <mxGeometry x="985" y="260" width="120" height="60" as="geometry" />
        </mxCell>
        <mxCell id="ahcAF79gHkiVkAypd0kX-12" value="" style="endArrow=classic;html=1;rounded=0;exitX=0.5;exitY=1;exitDx=0;exitDy=0;entryX=0.5;entryY=0;entryDx=0;entryDy=0;" edge="1" parent="1" source="ahcAF79gHkiVkAypd0kX-4" target="ahcAF79gHkiVkAypd0kX-11">
          <mxGeometry width="50" height="50" relative="1" as="geometry">
            <mxPoint x="940" y="470" as="sourcePoint" />
            <mxPoint x="990" y="420" as="targetPoint" />
          </mxGeometry>
        </mxCell>
        <mxCell id="ahcAF79gHkiVkAypd0kX-13" value="Requirement extraction from &lt;br&gt;ODM" style="shape=parallelogram;perimeter=parallelogramPerimeter;whiteSpace=wrap;html=1;fixedSize=1;" vertex="1" parent="1">
          <mxGeometry x="860" y="260" width="120" height="60" as="geometry" />
        </mxCell>
        <mxCell id="ahcAF79gHkiVkAypd0kX-14" value="" style="endArrow=classic;html=1;rounded=0;entryX=0.578;entryY=-0.011;entryDx=0;entryDy=0;entryPerimeter=0;" edge="1" parent="1" target="ahcAF79gHkiVkAypd0kX-13">
          <mxGeometry width="50" height="50" relative="1" as="geometry">
            <mxPoint x="1050" y="230" as="sourcePoint" />
            <mxPoint x="970" y="270" as="targetPoint" />
            <Array as="points">
              <mxPoint x="930" y="230" />
            </Array>
          </mxGeometry>
        </mxCell>
        <mxCell id="ahcAF79gHkiVkAypd0kX-15" value="Feature Extraction" style="text;html=1;strokeColor=none;fillColor=none;align=center;verticalAlign=middle;whiteSpace=wrap;rounded=0;" vertex="1" parent="1">
          <mxGeometry x="1260" y="320" width="60" height="30" as="geometry" />
        </mxCell>
        <mxCell id="ahcAF79gHkiVkAypd0kX-17" value="" style="endArrow=none;dashed=1;html=1;dashPattern=1 3;strokeWidth=2;rounded=0;exitX=1;exitY=0.5;exitDx=0;exitDy=0;entryX=0;entryY=0.5;entryDx=0;entryDy=0;" edge="1" parent="1" source="ahcAF79gHkiVkAypd0kX-6" target="ahcAF79gHkiVkAypd0kX-16">
          <mxGeometry width="50" height="50" relative="1" as="geometry">
            <mxPoint x="1130" y="340" as="sourcePoint" />
            <mxPoint x="1180" y="290" as="targetPoint" />
          </mxGeometry>
        </mxCell>
        <mxCell id="ahcAF79gHkiVkAypd0kX-18" value="" style="endArrow=none;html=1;rounded=0;entryX=1;entryY=0.5;entryDx=0;entryDy=0;exitX=0;exitY=0.5;exitDx=0;exitDy=0;" edge="1" parent="1" source="ahcAF79gHkiVkAypd0kX-4" target="ahcAF79gHkiVkAypd0kX-5">
          <mxGeometry width="50" height="50" relative="1" as="geometry">
            <mxPoint x="1050" y="240" as="sourcePoint" />
            <mxPoint x="1100" y="190" as="targetPoint" />
          </mxGeometry>
        </mxCell>
        <mxCell id="ahcAF79gHkiVkAypd0kX-19" value="" style="endArrow=none;html=1;rounded=0;entryX=0.5;entryY=1;entryDx=0;entryDy=0;" edge="1" parent="1" target="ahcAF79gHkiVkAypd0kX-3">
          <mxGeometry width="50" height="50" relative="1" as="geometry">
            <mxPoint x="850" y="170" as="sourcePoint" />
            <mxPoint x="850" y="100" as="targetPoint" />
          </mxGeometry>
        </mxCell>
        <mxCell id="ahcAF79gHkiVkAypd0kX-20" value="&lt;font style=&quot;font-size: 8px;&quot;&gt;Operational Analysis Report&lt;/font&gt;" style="text;html=1;strokeColor=#666666;fillColor=#f5f5f5;align=center;verticalAlign=middle;whiteSpace=wrap;rounded=0;fontColor=#333333;" vertex="1" parent="1">
          <mxGeometry x="860" y="320" width="100" height="30" as="geometry" />
        </mxCell>
        <mxCell id="ahcAF79gHkiVkAypd0kX-21" value="&lt;font style=&quot;font-size: 8px;&quot;&gt;Incident Detection Report&lt;/font&gt;" style="text;html=1;align=center;verticalAlign=middle;whiteSpace=wrap;rounded=0;fillColor=#f5f5f5;fontColor=#333333;strokeColor=#666666;" vertex="1" parent="1">
          <mxGeometry x="985" y="320" width="100" height="30" as="geometry" />
        </mxCell>
        <mxCell id="ahcAF79gHkiVkAypd0kX-22" value="&lt;font style=&quot;font-size: 8px;&quot;&gt;Hardware Profiling Report&lt;br&gt;(Optional)&lt;br&gt;&lt;/font&gt;" style="text;html=1;strokeColor=#666666;fillColor=#f5f5f5;align=center;verticalAlign=middle;whiteSpace=wrap;rounded=0;fontColor=#333333;" vertex="1" parent="1">
          <mxGeometry x="1105" y="320" width="100" height="30" as="geometry" />
        </mxCell>
        <mxCell id="ahcAF79gHkiVkAypd0kX-23" value="&lt;p style=&quot;line-height: 40%;&quot;&gt;&lt;font style=&quot;font-size: 4px;&quot;&gt;HPR referring to the examination of currently existing Hardware, it&#39;s applicability to the proposed system and how it is to be modified to create the existing system, this step is optional because if you&#39;re making your own hardware a HPR is not required and instead just make a normal justification of design document&lt;/font&gt;&lt;/p&gt;" style="text;html=1;strokeColor=#666666;fillColor=#f5f5f5;align=center;verticalAlign=middle;whiteSpace=wrap;rounded=0;fontColor=#333333;" vertex="1" parent="1">
          <mxGeometry x="1100" y="350" width="110" height="50" as="geometry" />
        </mxCell>
        <mxCell id="ahcAF79gHkiVkAypd0kX-24" value="&lt;p style=&quot;line-height: 20%;&quot;&gt;&lt;font style=&quot;font-size: 4px;&quot;&gt;Either way, a comparison requirement document is needed, analyzing the cost and features of the SotA in order to properly justify the feasibility of the proposed AS.&lt;/font&gt;&lt;/p&gt;" style="text;html=1;strokeColor=#666666;fillColor=#f5f5f5;align=center;verticalAlign=middle;whiteSpace=wrap;rounded=0;fontColor=#333333;" vertex="1" parent="1">
          <mxGeometry x="1100" y="400" width="110" height="20" as="geometry" />
        </mxCell>
        <mxCell id="ahcAF79gHkiVkAypd0kX-25" value="" style="endArrow=none;html=1;rounded=0;" edge="1" parent="1">
          <mxGeometry width="50" height="50" relative="1" as="geometry">
            <mxPoint x="910" y="370" as="sourcePoint" />
            <mxPoint x="1040" y="370" as="targetPoint" />
          </mxGeometry>
        </mxCell>
        <mxCell id="ahcAF79gHkiVkAypd0kX-26" value="ODM limitation extraction" style="shape=parallelogram;perimeter=parallelogramPerimeter;whiteSpace=wrap;html=1;fixedSize=1;" vertex="1" parent="1">
          <mxGeometry x="900" y="400" width="120" height="60" as="geometry" />
        </mxCell>
        <mxCell id="ahcAF79gHkiVkAypd0kX-27" value="" style="endArrow=classic;html=1;rounded=0;entryX=0.578;entryY=0;entryDx=0;entryDy=0;entryPerimeter=0;" edge="1" parent="1" target="ahcAF79gHkiVkAypd0kX-26">
          <mxGeometry width="50" height="50" relative="1" as="geometry">
            <mxPoint x="970" y="370" as="sourcePoint" />
            <mxPoint x="1100" y="320" as="targetPoint" />
          </mxGeometry>
        </mxCell>
        <mxCell id="ahcAF79gHkiVkAypd0kX-30" value="&lt;p style=&quot;line-height: 30%;&quot;&gt;&lt;font style=&quot;font-size: 4px;&quot;&gt;A quirk within rail is that a scenario is to be assumed &quot;safe&quot; unless specified otherwise, this is due to the nature of the locomotives being separated from the environment, therefore, SACRED aims to declare &quot;unsafe areas&quot; and have every other area be &#39;assumed safe&#39; this is different to other safety assurance approaches that declare areas safe and all other areas be assumed unsafe.&lt;/font&gt;&lt;/p&gt;" style="text;html=1;strokeColor=#666666;fillColor=#f5f5f5;align=center;verticalAlign=middle;whiteSpace=wrap;rounded=0;fontColor=#333333;" vertex="1" parent="1">
          <mxGeometry x="900" y="460" width="100" height="50" as="geometry" />
        </mxCell>
        <mxCell id="ahcAF79gHkiVkAypd0kX-31" value="&lt;p style=&quot;line-height: 20%;&quot;&gt;&lt;font style=&quot;font-size: 4px;&quot;&gt;Therefore, this process is extracting the limitation defined within the ODM which is to say, the declaration of the minimum applicable area of operation&lt;/font&gt;&lt;/p&gt;" style="text;html=1;strokeColor=#666666;fillColor=#f5f5f5;align=center;verticalAlign=middle;whiteSpace=wrap;rounded=0;fontColor=#333333;" vertex="1" parent="1">
          <mxGeometry x="900" y="510" width="100" height="20" as="geometry" />
        </mxCell>
        <mxCell id="ahcAF79gHkiVkAypd0kX-32" value="Risk Identification" style="shape=process;whiteSpace=wrap;html=1;backgroundOutline=1;" vertex="1" parent="1">
          <mxGeometry x="985" y="570" width="120" height="60" as="geometry" />
        </mxCell>
        <mxCell id="ahcAF79gHkiVkAypd0kX-33" value="" style="endArrow=none;html=1;rounded=0;entryX=0.5;entryY=1;entryDx=0;entryDy=0;" edge="1" parent="1" target="ahcAF79gHkiVkAypd0kX-24">
          <mxGeometry width="50" height="50" relative="1" as="geometry">
            <mxPoint x="950" y="550" as="sourcePoint" />
            <mxPoint x="1030" y="460" as="targetPoint" />
            <Array as="points">
              <mxPoint x="1155" y="550" />
            </Array>
          </mxGeometry>
        </mxCell>
        <mxCell id="ahcAF79gHkiVkAypd0kX-34" value="" style="endArrow=none;html=1;rounded=0;entryX=0.5;entryY=1;entryDx=0;entryDy=0;" edge="1" parent="1" target="ahcAF79gHkiVkAypd0kX-31">
          <mxGeometry width="50" height="50" relative="1" as="geometry">
            <mxPoint x="950" y="550" as="sourcePoint" />
            <mxPoint x="990" y="510" as="targetPoint" />
          </mxGeometry>
        </mxCell>
        <mxCell id="ahcAF79gHkiVkAypd0kX-35" value="" style="endArrow=classic;html=1;rounded=0;entryX=0.5;entryY=0;entryDx=0;entryDy=0;" edge="1" parent="1" target="ahcAF79gHkiVkAypd0kX-32">
          <mxGeometry width="50" height="50" relative="1" as="geometry">
            <mxPoint x="1045" y="550" as="sourcePoint" />
            <mxPoint x="1100" y="530" as="targetPoint" />
          </mxGeometry>
        </mxCell>
        <mxCell id="ahcAF79gHkiVkAypd0kX-36" value="Physical/Simulated Testing if possible" style="text;html=1;strokeColor=none;fillColor=none;align=center;verticalAlign=middle;whiteSpace=wrap;rounded=0;" vertex="1" parent="1">
          <mxGeometry x="995" y="630" width="105" height="30" as="geometry" />
        </mxCell>
        <mxCell id="ahcAF79gHkiVkAypd0kX-51" value="Assurance of readability through Estimation&lt;br&gt;Relation" style="shape=parallelogram;perimeter=parallelogramPerimeter;whiteSpace=wrap;html=1;fixedSize=1;" vertex="1" parent="1">
          <mxGeometry x="709.5" y="260" width="120" height="60" as="geometry" />
        </mxCell>
        <mxCell id="ahcAF79gHkiVkAypd0kX-52" value="" style="endArrow=classic;html=1;rounded=0;exitX=0.5;exitY=1;exitDx=0;exitDy=0;entryX=0.625;entryY=-0.05;entryDx=0;entryDy=0;entryPerimeter=0;" edge="1" parent="1" target="ahcAF79gHkiVkAypd0kX-51">
          <mxGeometry width="50" height="50" relative="1" as="geometry">
            <mxPoint x="649.5" y="200" as="sourcePoint" />
            <mxPoint x="594.5" y="420" as="targetPoint" />
            <Array as="points">
              <mxPoint x="649.5" y="230" />
              <mxPoint x="784.5" y="230" />
            </Array>
          </mxGeometry>
        </mxCell>
        <mxCell id="ahcAF79gHkiVkAypd0kX-53" value="Requirement extraction from Hazard Classification" style="shape=parallelogram;perimeter=parallelogramPerimeter;whiteSpace=wrap;html=1;fixedSize=1;" vertex="1" parent="1">
          <mxGeometry x="589.5" y="260" width="120" height="60" as="geometry" />
        </mxCell>
        <mxCell id="ahcAF79gHkiVkAypd0kX-54" value="" style="endArrow=classic;html=1;rounded=0;exitX=0.5;exitY=1;exitDx=0;exitDy=0;entryX=0.5;entryY=0;entryDx=0;entryDy=0;" edge="1" parent="1" target="ahcAF79gHkiVkAypd0kX-53">
          <mxGeometry width="50" height="50" relative="1" as="geometry">
            <mxPoint x="649.5" y="200" as="sourcePoint" />
            <mxPoint x="594.5" y="420" as="targetPoint" />
          </mxGeometry>
        </mxCell>
        <mxCell id="ahcAF79gHkiVkAypd0kX-55" value="Analysis of&lt;br style=&quot;border-color: var(--border-color);&quot;&gt;Industry standard" style="shape=parallelogram;perimeter=parallelogramPerimeter;whiteSpace=wrap;html=1;fixedSize=1;" vertex="1" parent="1">
          <mxGeometry x="464.5" y="260" width="120" height="60" as="geometry" />
        </mxCell>
        <mxCell id="ahcAF79gHkiVkAypd0kX-56" value="" style="endArrow=classic;html=1;rounded=0;entryX=0.578;entryY=-0.011;entryDx=0;entryDy=0;entryPerimeter=0;" edge="1" parent="1" target="ahcAF79gHkiVkAypd0kX-55">
          <mxGeometry width="50" height="50" relative="1" as="geometry">
            <mxPoint x="654.5" y="230" as="sourcePoint" />
            <mxPoint x="574.5" y="270" as="targetPoint" />
            <Array as="points">
              <mxPoint x="534.5" y="230" />
            </Array>
          </mxGeometry>
        </mxCell>
        <mxCell id="ahcAF79gHkiVkAypd0kX-57" value="&lt;p style=&quot;line-height: 60%;&quot;&gt;&lt;font style=&quot;font-size: 8px;&quot;&gt;Identifying SotA which fall within defined restrictions&lt;/font&gt;&lt;/p&gt;" style="text;html=1;strokeColor=none;fillColor=none;align=center;verticalAlign=middle;whiteSpace=wrap;rounded=0;" vertex="1" parent="1">
          <mxGeometry x="1260" y="380" width="60" height="30" as="geometry" />
        </mxCell>
        <mxCell id="ahcAF79gHkiVkAypd0kX-58" value="Hardware requirement" style="text;html=1;strokeColor=none;fillColor=none;align=center;verticalAlign=middle;whiteSpace=wrap;rounded=0;" vertex="1" parent="1">
          <mxGeometry x="365" y="220" width="60" height="30" as="geometry" />
        </mxCell>
        <mxCell id="ahcAF79gHkiVkAypd0kX-59" value="Software Availability" style="text;html=1;strokeColor=none;fillColor=none;align=center;verticalAlign=middle;whiteSpace=wrap;rounded=0;" vertex="1" parent="1">
          <mxGeometry x="365" y="260" width="60" height="30" as="geometry" />
        </mxCell>
        <mxCell id="ahcAF79gHkiVkAypd0kX-60" value="Efficiency Analysis" style="text;html=1;strokeColor=none;fillColor=none;align=center;verticalAlign=middle;whiteSpace=wrap;rounded=0;" vertex="1" parent="1">
          <mxGeometry x="365" y="300" width="60" height="30" as="geometry" />
        </mxCell>
        <mxCell id="ahcAF79gHkiVkAypd0kX-62" value="" style="endArrow=none;dashed=1;html=1;dashPattern=1 3;strokeWidth=2;rounded=0;exitX=0.991;exitY=0.589;exitDx=0;exitDy=0;exitPerimeter=0;entryX=0;entryY=0.5;entryDx=0;entryDy=0;" edge="1" parent="1" source="ahcAF79gHkiVkAypd0kX-61" target="ahcAF79gHkiVkAypd0kX-55">
          <mxGeometry width="50" height="50" relative="1" as="geometry">
            <mxPoint x="740" y="380" as="sourcePoint" />
            <mxPoint x="790" y="330" as="targetPoint" />
          </mxGeometry>
        </mxCell>
        <mxCell id="ahcAF79gHkiVkAypd0kX-63" value="&lt;p style=&quot;line-height: 40%;&quot;&gt;&lt;font style=&quot;font-size: 4px;&quot;&gt;The Estimation Relation Diagram (as defined within Step 2) declares Digital Hazards in relation to one another, from this, we can extract the top level of relevance each hazard relates to, meaning the easiest to explain. In assurance terms, it is important to identify how each top level will be represented within the AS.&lt;/font&gt;&lt;/p&gt;" style="text;html=1;strokeColor=#666666;fillColor=#f5f5f5;align=center;verticalAlign=middle;whiteSpace=wrap;rounded=0;fontColor=#333333;" vertex="1" parent="1">
          <mxGeometry x="709.5" y="320" width="100.5" height="50" as="geometry" />
        </mxCell>
        <mxCell id="ahcAF79gHkiVkAypd0kX-64" value="&lt;font style=&quot;font-size: 8px;&quot;&gt;Detection Stress Test&lt;/font&gt;" style="text;html=1;strokeColor=#666666;fillColor=#f5f5f5;align=center;verticalAlign=middle;whiteSpace=wrap;rounded=0;fontColor=#333333;" vertex="1" parent="1">
          <mxGeometry x="590" y="320" width="100" height="30" as="geometry" />
        </mxCell>
        <mxCell id="ahcAF79gHkiVkAypd0kX-65" value="Applicability Justification Report" style="rounded=1;whiteSpace=wrap;html=1;" vertex="1" parent="1">
          <mxGeometry x="790" y="660" width="120" height="60" as="geometry" />
        </mxCell>
        <mxCell id="ahcAF79gHkiVkAypd0kX-66" value="" style="endArrow=none;html=1;rounded=0;entryX=0;entryY=0.5;entryDx=0;entryDy=0;exitX=0.5;exitY=0;exitDx=0;exitDy=0;" edge="1" parent="1" source="ahcAF79gHkiVkAypd0kX-65" target="ahcAF79gHkiVkAypd0kX-32">
          <mxGeometry width="50" height="50" relative="1" as="geometry">
            <mxPoint x="800" y="570" as="sourcePoint" />
            <mxPoint x="850" y="520" as="targetPoint" />
            <Array as="points">
              <mxPoint x="850" y="600" />
            </Array>
          </mxGeometry>
        </mxCell>
        <mxCell id="ahcAF79gHkiVkAypd0kX-67" value="Accuracy Report" style="shape=process;whiteSpace=wrap;html=1;backgroundOutline=1;" vertex="1" parent="1">
          <mxGeometry x="580" y="570" width="120" height="60" as="geometry" />
        </mxCell>
        <mxCell id="ahcAF79gHkiVkAypd0kX-68" value="" style="endArrow=none;html=1;rounded=0;" edge="1" parent="1" source="ahcAF79gHkiVkAypd0kX-67">
          <mxGeometry width="50" height="50" relative="1" as="geometry">
            <mxPoint x="810" y="690" as="sourcePoint" />
            <mxPoint x="850" y="600" as="targetPoint" />
          </mxGeometry>
        </mxCell>
        <mxCell id="ahcAF79gHkiVkAypd0kX-69" value="&lt;font style=&quot;font-size: 10px;&quot;&gt;Limitation / Failure report relating to Step 5&lt;/font&gt;" style="shape=parallelogram;perimeter=parallelogramPerimeter;whiteSpace=wrap;html=1;fixedSize=1;" vertex="1" parent="1">
          <mxGeometry x="640" y="410" width="120" height="60" as="geometry" />
        </mxCell>
        <mxCell id="ahcAF79gHkiVkAypd0kX-72" value="" style="endArrow=none;html=1;rounded=0;" edge="1" parent="1">
          <mxGeometry width="50" height="50" relative="1" as="geometry">
            <mxPoint x="640" y="390" as="sourcePoint" />
            <mxPoint x="760" y="390" as="targetPoint" />
          </mxGeometry>
        </mxCell>
        <mxCell id="ahcAF79gHkiVkAypd0kX-73" value="" style="endArrow=classic;html=1;rounded=0;entryX=0.5;entryY=0;entryDx=0;entryDy=0;" edge="1" parent="1" target="ahcAF79gHkiVkAypd0kX-69">
          <mxGeometry width="50" height="50" relative="1" as="geometry">
            <mxPoint x="700" y="390" as="sourcePoint" />
            <mxPoint x="780" y="360" as="targetPoint" />
          </mxGeometry>
        </mxCell>
        <mxCell id="ahcAF79gHkiVkAypd0kX-74" value="&lt;font style=&quot;font-size: 8px;&quot;&gt;Software Profiling Report&lt;br&gt;(Optional)&lt;br&gt;&lt;/font&gt;" style="text;html=1;strokeColor=#666666;fillColor=#f5f5f5;align=center;verticalAlign=middle;whiteSpace=wrap;rounded=0;fontColor=#333333;" vertex="1" parent="1">
          <mxGeometry x="464.5" y="320" width="100" height="30" as="geometry" />
        </mxCell>
        <mxCell id="ahcAF79gHkiVkAypd0kX-76" value="Stress test of proposed software" style="shape=process;whiteSpace=wrap;html=1;backgroundOutline=1;" vertex="1" parent="1">
          <mxGeometry x="580" y="510" width="120" height="60" as="geometry" />
        </mxCell>
        <mxCell id="ahcAF79gHkiVkAypd0kX-77" value="" style="endArrow=none;html=1;rounded=0;entryX=0.5;entryY=1;entryDx=0;entryDy=0;" edge="1" parent="1" target="ahcAF79gHkiVkAypd0kX-74">
          <mxGeometry width="50" height="50" relative="1" as="geometry">
            <mxPoint x="700" y="490" as="sourcePoint" />
            <mxPoint x="720" y="450" as="targetPoint" />
            <Array as="points">
              <mxPoint x="515" y="490" />
            </Array>
          </mxGeometry>
        </mxCell>
        <mxCell id="ahcAF79gHkiVkAypd0kX-78" value="" style="endArrow=none;html=1;rounded=0;exitX=0.5;exitY=1;exitDx=0;exitDy=0;" edge="1" parent="1" source="ahcAF79gHkiVkAypd0kX-69">
          <mxGeometry width="50" height="50" relative="1" as="geometry">
            <mxPoint x="600" y="510" as="sourcePoint" />
            <mxPoint x="700" y="490" as="targetPoint" />
          </mxGeometry>
        </mxCell>
        <mxCell id="ahcAF79gHkiVkAypd0kX-79" value="" style="endArrow=classic;html=1;rounded=0;entryX=0.5;entryY=0;entryDx=0;entryDy=0;" edge="1" parent="1" target="ahcAF79gHkiVkAypd0kX-76">
          <mxGeometry width="50" height="50" relative="1" as="geometry">
            <mxPoint x="640" y="490" as="sourcePoint" />
            <mxPoint x="650" y="460" as="targetPoint" />
          </mxGeometry>
        </mxCell>
      </root>
    </mxGraphModel>
  </diagram>
</mxfile>
